<svg xmlns="http://www.w3.org/2000/svg" xmlns:xlink="http://www.w3.org/1999/xlink" version="1.1" x="0px" y="0px" viewBox="0 0 80 100" enable-background="new 0 0 80 80" xml:space="preserve"><g><path d="M18.426,61.065c0,4.758,4.442,7.452,5.761,7.452c1.319,0,2.465,0,2.465,0h11.866V52.868H22.123   C22.123,52.868,18.426,56.308,18.426,61.065z"/><path d="M25.219,43.802c0.086-0.153,0.287-0.479,0.573-0.335s4.442,2.379,4.442,2.379l-7.423-13.146l-15.234,0.22   c0,0,3.905,2.271,4.264,2.494s0.086,0.63-0.043,0.889c-0.129,0.258-3.375,5.847-3.948,6.994s-0.344,2.293,0,3.066   c0.344,0.774,9,15.507,9,15.507c-0.019-2.532,0.42-3.773,0.669-4.385s1.452-2.81,1.72-3.268   C19.505,53.757,25.133,43.954,25.219,43.802z"/><path d="M59.677,51.104c0,0,4.827,1.482,8.948-0.896c4.12-2.379,4.232-7.573,3.573-8.716c-0.659-1.142-1.232-2.135-1.232-2.135   l-5.934-10.276l-13.553,7.825L59.677,51.104z"/><path d="M62.286,52.93c-0.53-0.003-11.834,0.025-12.009,0.027c-0.176,0.002-0.558-0.01-0.576-0.329   c-0.02-0.32-0.161-5.037-0.161-5.037l-7.674,13.002l7.808,13.083c0,0,0.015-4.518,0.027-4.938c0.014-0.422,0.503-0.39,0.791-0.407   s6.751-0.001,8.031-0.077c1.279-0.077,2.157-0.849,2.656-1.534c0.498-0.685,8.929-15.547,8.929-15.547   c-2.184,1.282-3.479,1.522-4.132,1.613C65.322,52.875,62.817,52.932,62.286,52.93z"/><path d="M34.122,12.163c-4.121-2.379-8.675,0.121-9.334,1.263c-0.659,1.142-1.232,2.135-1.232,2.135l-5.933,10.276l13.553,7.825   l8.197-14.198C39.373,19.464,38.243,14.542,34.122,12.163z"/><path d="M45.68,27.341C45.412,27.518,41.398,30,41.398,30l15.097,0.145l7.427-13.303c0,0-3.92,2.246-4.291,2.445   s-0.589-0.241-0.748-0.481s-3.376-5.846-4.083-6.916c-0.706-1.07-1.813-1.444-2.655-1.534c-0.842-0.089-17.929,0.041-17.929,0.041   c2.202,1.25,3.058,2.251,3.463,2.772s1.707,2.662,1.97,3.123c0.263,0.461,5.938,10.236,6.028,10.387   C45.766,26.829,45.947,27.165,45.68,27.341z"/></g></svg>