<svg xmlns="http://www.w3.org/2000/svg" version="1.1" viewBox="0 0 100 100">
 <path d="m84.262 75.105 3.9297-3.9336c1.2305-1.2266 1.707-3.0195 1.2578-4.6953-0.44922-1.6797-1.7578-2.9883-3.4336-3.4375l-25.289-6.7773c-1.6797-0.44922-3.4688 0.027343-4.6953 1.2578-1.2305 1.2266-1.7109 3.0156-1.2617 4.6953l6.7773 25.293c0.44922 1.6758 1.7617 2.9844 3.4375 3.4336 1.6797 0.45312 3.4688-0.027344 4.6953-1.2539l3.9336-3.9336 12.191 12.191c0.90234 0.90625 2.3711 0.90625 3.2734 0l7.375-7.375c0.43359-0.43359 0.67969-1.0234 0.67969-1.6367 0-0.61719-0.24609-1.2031-0.67969-1.6367zm-44.984-18.844-25.289 6.7773h-0.003906c-1.6758 0.44922-2.9844 1.7617-3.4336 3.4375-0.44922 1.6797 0.027344 3.4688 1.2578 4.6953l3.9297 3.9336-12.191 12.191c-0.43359 0.43359-0.67969 1.0195-0.67969 1.6367 0 0.61328 0.24609 1.2031 0.67969 1.6367l7.375 7.375c0.90234 0.90625 2.3711 0.90625 3.2734 0l12.195-12.191 3.9336 3.9336h-0.003907c1.2305 1.2266 3.0195 1.707 4.6953 1.2578 1.6797-0.44922 2.9883-1.7617 3.4375-3.4375l6.7773-25.293c0.44922-1.6758-0.03125-3.4688-1.2578-4.6953-1.2266-1.2266-3.0195-1.707-4.6953-1.2578zm20.168-12.352c0.43359 0 0.86328-0.058594 1.2812-0.17188l25.289-6.7773c1.6758-0.44922 2.9883-1.7617 3.4375-3.4375 0.44922-1.6797-0.03125-3.4688-1.2617-4.6953l-3.9297-3.9336 12.191-12.191c0.43359-0.43359 0.67969-1.0234 0.67969-1.6367 0-0.61328-0.24609-1.2031-0.67969-1.6367l-7.375-7.375c-0.43359-0.43359-1.0234-0.67969-1.6367-0.67969-0.61328 0-1.2031 0.24609-1.6367 0.67969l-12.191 12.191-3.9336-3.9336c-1.2266-1.2266-3.0195-1.7031-4.6953-1.2539-1.6758 0.44922-2.9883 1.7578-3.4375 3.4336l-6.7773 25.289v0.003906c-0.39062 1.457-0.082031 3.0117 0.83203 4.2109 0.91406 1.1992 2.3359 1.9062 3.8438 1.9141zm-20.992-30.859c-0.44922-1.6797-1.7578-2.9883-3.4375-3.4375-1.6758-0.45312-3.4648 0.027344-4.6953 1.2578l-3.9297 3.9336-12.195-12.195c-0.90625-0.90234-2.3711-0.90234-3.2734 0l-7.375 7.3789c-0.43359 0.43359-0.67969 1.0195-0.67969 1.6367 0 0.61328 0.24609 1.2031 0.67969 1.6367l12.191 12.191-3.9297 3.9297c-1.2305 1.2305-1.707 3.0195-1.2578 4.6992 0.44922 1.6758 1.7578 2.9883 3.4336 3.4375l25.289 6.7773h0.003906c0.41406 0.11328 0.84766 0.17188 1.2812 0.17188 1.5039-0.007812 2.9258-0.71484 3.8398-1.9141 0.91406-1.1992 1.2227-2.7539 0.83203-4.2109z" fill-rule="evenodd"/></svg>