<svg width="120px" height="120px" xmlns="http://www.w3.org/2000/svg" viewBox="0 0 64 64" x="0px" y="0px"><path d="M42.8026,7.2767a2.996,2.996,0,0,1-.3924,5.0415L37.58,14.89a18.0007,18.0007,0,0,1,.09,34.198V47.411a1,1,0,0,0-1.47-.8828L23.2,53.4481a1,1,0,0,0,0,1.7647l6.8,3.63a.8322.8322,0,0,0,.0835.04L36.2,62.1434a1,1,0,0,0,1.47-.8828V58.3925A26.9816,26.9816,0,0,0,42.8026,7.2767Z"/><path d="M42,9.6708a.9838.9838,0,0,1-.53.88l-9.04,4.81-3.96,2.11a.98.98,0,0,1-.98-.02.99.99,0,0,1-.49-.86v-1.88a18.0993,18.0993,0,0,0-13,17.29,17.9167,17.9167,0,0,0,12.83,17.25l-4.57,2.43a3.0033,3.0033,0,0,0,0,5.3l1.12.6A26.9935,26.9935,0,0,1,27,5.4708v-2.73a.9978.9978,0,0,1,1.47-.88l3.81,2.03,9.19,4.9A.984.984,0,0,1,42,9.6708Z"/></svg>